<svg width="240" height="240" viewBox="0 0 240 240" fill="none" xmlns="http://www.w3.org/2000/svg">
<path d="M101 184.5C108.096 184.613 119 182 119 182C119 182 105.564 177.426 98.5 172C93.901 168.468 91.5348 166.097 88 161.5C83.4211 155.545 81.8805 151.438 79 144.5C76.253 137.884 74.2464 134.125 73.5 127C72.6598 118.979 72.35 113.692 76 106.5C79.8163 98.9805 84.1163 94.9923 92 92C97.6857 89.842 101.498 89.5207 107.5 90.5C113.88 91.541 117.697 93.1737 122.5 97.5C127.954 102.412 130.213 106.774 131.5 114C132.672 120.581 131.848 124.741 129.5 131C127.274 136.932 120.5 144.5 120.5 144.5C120.5 144.5 124.19 147.72 127 149C133.575 151.995 138.613 151.183 145.5 149C152.316 146.839 156.318 144.3 160.5 138.5C165.208 131.969 165.216 126.546 165.5 118.5C165.832 109.123 164.046 103.687 160.5 95C156.509 85.2226 153.184 79.7446 145.5 72.5C138.799 66.1815 134.065 63.388 125.5 60C115.56 56.0679 109.17 54.8609 98.5 55.5C88.3796 56.1061 82.4197 57.6802 73.5 62.5C64.6118 67.3028 60.2777 71.5844 54 79.5C48.19 86.826 42.5 100.5 42.5 100.5C42.5 100.5 38.5329 119.227 40.5 131C42.1496 140.873 44.1476 146.541 49.5 155C55.2586 164.101 59.9221 168.706 69 174.5C80.0363 181.544 87.9089 184.291 101 184.5Z" fill="black"/>
<path d="M92 92C97.3178 89.9679 100.861 89.7198 106.5 90.5001C111.888 91.2457 119.5 95.5001 119.5 95.5001L116 98.5001C116 98.5001 110.034 106.167 108.5 112C106.611 119.186 106.868 124.052 109.5 131C112.158 138.015 115.152 142.003 121.5 146C126.993 149.458 131.017 150.82 137.5 150.5C144.236 150.168 148.162 148.122 153.5 144C158.57 140.086 161.017 136.904 163.5 131C166.612 123.601 165 110.5 165 110.5L159 92.0001C156.657 84.7754 153.761 81.9063 149 76.5001C144.423 71.3025 141.295 68.7929 135.5 65.0001C130.896 61.987 123 58.5001 123 58.5001C123 58.5001 128.658 56.1107 132.5 55.5001C138.89 54.4847 142.681 55.61 149 57.0001C157.216 58.8075 161.855 60.56 169 65.0001C176.396 69.5966 180.093 73.1736 185.5 80.0001C191.034 86.9878 193.729 91.528 196.5 100C199.136 108.058 199.5 121.5 199.5 121.5C199.5 121.5 197.817 138.016 193.5 147.5C189.437 156.425 179 168 179 168C179 168 165.607 178.359 155.5 181.5C146.316 184.355 140.575 184.9 131 184C121.038 183.064 115.298 181.267 106.5 176.5C97.2453 171.485 92.2934 167.438 86 159C79.6227 150.45 77.0299 144.472 75 134C73.2535 124.991 71.7794 119.094 75 110.5C78.4433 101.312 82.8346 95.5024 92 92Z" fill="#E4E4E4"/>
<path fill-rule="evenodd" clip-rule="evenodd" d="M119.501 182.7C119.494 182.701 119.488 182.703 119.481 182.705C114.085 184.201 108.401 185 102.533 185C67.4687 185 39 155.258 39 120C39 84.7423 67.4687 55 102.533 55C108.438 55 114.155 55.8091 119.581 57.3232L120.051 57.1499L120.081 57.1419C124.603 55.9333 129.323 55.2131 134.181 55.0405C134.939 55.0136 135.701 55 136.467 55C171.531 55 200 84.7423 200 120C200 155.258 171.531 185 136.467 185C130.592 185 124.902 184.199 119.501 182.7ZM40.389 120C40.389 85.5891 68.1882 56.4452 102.533 56.4452C136.879 56.4452 164.678 85.5891 164.678 120H164.674C164.674 135.598 152.069 149.492 136.467 149.492C130.626 149.492 125.206 147.714 120.71 144.671C127.654 139.235 132.13 129.544 132.13 120C132.13 103.555 118.856 89.063 102.533 89.063C86.2113 89.063 72.9366 103.555 72.9366 120H72.9331C72.9331 148.37 91.3658 173.594 116.836 181.896C112.245 182.981 107.456 183.555 102.533 183.555C68.1882 183.555 40.389 154.411 40.389 120ZM119.579 181.226H119.548C119.526 181.232 119.522 181.197 119.499 181.203C93.4128 173.793 74.322 148.516 74.322 120H74.3255C74.3255 104.402 86.9309 90.5082 102.533 90.5082C108.374 90.5082 113.794 92.286 118.29 95.3287C111.346 100.765 106.87 110.455 106.87 120C106.87 136.445 120.144 150.937 136.467 150.937C152.789 150.937 166.063 136.445 166.063 120H166.067C166.067 91.6297 147.634 66.4058 122.164 58.1043C126.057 57.1845 130.091 56.6318 134.228 56.4849C134.971 56.4585 135.717 56.4452 136.467 56.4452C170.812 56.4452 198.611 85.5891 198.611 120C198.611 154.411 170.812 183.555 136.467 183.555C130.612 183.555 124.948 182.743 119.579 181.226ZM119.5 96.1949C112.666 101.363 108.259 110.771 108.259 120C108.259 129.226 112.668 138.638 119.5 143.805C126.334 138.637 130.741 129.229 130.741 120C130.741 110.774 126.332 101.362 119.5 96.1949Z" fill="black"/>
<path d="M92 92C84.1163 94.9923 79.8163 98.9805 76 106.5C72.35 113.692 72.6598 118.979 73.5 127C74.2464 134.125 76.253 137.884 79 144.5C81.8805 151.438 83.4211 155.545 88 161.5C91.5348 166.097 93.901 168.468 98.5 172C105.564 177.426 119 182 119 182C119 182 108.096 184.613 101 184.5C87.9089 184.291 80.0363 181.544 69 174.5C59.9221 168.706 55.2586 164.101 49.5 155C44.1476 146.541 42.1496 140.873 40.5 131C38.5329 119.227 42.5 100.5 42.5 100.5C42.5 100.5 48.19 86.826 54 79.5C60.2777 71.5844 64.6118 67.3028 73.5 62.5C82.4197 57.6802 88.3796 56.1061 98.5 55.5C109.17 54.8609 115.56 56.0679 125.5 60C134.065 63.388 138.799 66.1815 145.5 72.5C153.184 79.7446 156.509 85.2226 160.5 95C164.046 103.687 165.832 109.123 165.5 118.5C165.216 126.546 165.208 131.969 160.5 138.5C156.318 144.3 152.316 146.839 145.5 149C138.613 151.183 133.575 151.995 127 149C124.19 147.72 120.5 144.5 120.5 144.5C120.5 144.5 127.274 136.932 129.5 131C131.848 124.741 132.672 120.581 131.5 114C130.213 106.774 127.954 102.412 122.5 97.5C117.697 93.1737 113.88 91.541 107.5 90.5C101.498 89.5207 97.6857 89.842 92 92ZM92 92C97.3178 89.9679 100.861 89.7198 106.5 90.5001C111.888 91.2457 119.5 95.5001 119.5 95.5001L116 98.5001C116 98.5001 110.034 106.167 108.5 112C106.611 119.186 106.868 124.052 109.5 131C112.158 138.015 115.152 142.003 121.5 146C126.993 149.458 131.017 150.82 137.5 150.5C144.236 150.168 148.162 148.122 153.5 144C158.57 140.086 161.017 136.904 163.5 131C166.612 123.601 165 110.5 165 110.5L159 92.0001C156.657 84.7754 153.761 81.9063 149 76.5001C144.423 71.3025 141.295 68.7929 135.5 65.0001C130.896 61.987 123 58.5001 123 58.5001C123 58.5001 128.658 56.1107 132.5 55.5001C138.89 54.4847 142.681 55.61 149 57.0001C157.216 58.8075 161.855 60.56 169 65.0001C176.396 69.5966 180.093 73.1736 185.5 80.0001C191.034 86.9878 193.729 91.528 196.5 100C199.136 108.058 199.5 121.5 199.5 121.5C199.5 121.5 197.817 138.016 193.5 147.5C189.437 156.425 179 168 179 168C179 168 165.607 178.359 155.5 181.5C146.316 184.355 140.575 184.9 131 184C121.038 183.064 115.298 181.267 106.5 176.5C97.2453 171.485 92.2934 167.438 86 159C79.6227 150.45 77.0299 144.472 75 134C73.2535 124.991 71.7794 119.094 75 110.5C78.4433 101.312 82.8346 95.5024 92 92ZM119.501 182.7C119.494 182.701 119.488 182.703 119.481 182.705C114.085 184.201 108.401 185 102.533 185C67.4687 185 39 155.258 39 120C39 84.7423 67.4687 55 102.533 55C108.438 55 114.155 55.8091 119.581 57.3232L120.051 57.1499L120.081 57.1419C124.603 55.9333 129.323 55.2131 134.181 55.0405C134.939 55.0136 135.701 55 136.467 55C171.531 55 200 84.7423 200 120C200 155.258 171.531 185 136.467 185C130.592 185 124.902 184.199 119.501 182.7ZM40.389 120C40.389 85.5891 68.1882 56.4452 102.533 56.4452C136.879 56.4452 164.678 85.5891 164.678 120H164.674C164.674 135.598 152.069 149.492 136.467 149.492C130.626 149.492 125.206 147.714 120.71 144.671C127.654 139.235 132.13 129.544 132.13 120C132.13 103.555 118.856 89.063 102.533 89.063C86.2113 89.063 72.9366 103.555 72.9366 120H72.9331C72.9331 148.37 91.3658 173.594 116.836 181.896C112.245 182.981 107.456 183.555 102.533 183.555C68.1882 183.555 40.389 154.411 40.389 120ZM119.579 181.226H119.548C119.526 181.232 119.522 181.197 119.499 181.203C93.4128 173.793 74.322 148.516 74.322 120H74.3255C74.3255 104.402 86.9309 90.5082 102.533 90.5082C108.374 90.5082 113.794 92.286 118.29 95.3287C111.346 100.765 106.87 110.455 106.87 120C106.87 136.445 120.144 150.937 136.467 150.937C152.789 150.937 166.063 136.445 166.063 120H166.067C166.067 91.6297 147.634 66.4058 122.164 58.1043C126.057 57.1845 130.091 56.6318 134.228 56.4849C134.971 56.4585 135.717 56.4452 136.467 56.4452C170.812 56.4452 198.611 85.5891 198.611 120C198.611 154.411 170.812 183.555 136.467 183.555C130.612 183.555 124.948 182.743 119.579 181.226ZM119.5 96.1949C112.666 101.363 108.259 110.771 108.259 120C108.259 129.226 112.668 138.638 119.5 143.805C126.334 138.637 130.741 129.229 130.741 120C130.741 110.774 126.332 101.362 119.5 96.1949Z" stroke="black" stroke-width="3"/>
</svg>
