<svg width="240" height="240" viewBox="0 0 240 240" fill="none" xmlns="http://www.w3.org/2000/svg">
<path fill-rule="evenodd" clip-rule="evenodd" d="M120.501 182.7C120.494 182.701 120.488 182.703 120.481 182.705C115.085 184.201 109.401 185 103.533 185C68.4687 185 40 155.258 40 120C40 84.7423 68.4687 55 103.533 55C109.438 55 115.155 55.8091 120.581 57.3232L121.051 57.1499L121.081 57.1419C125.603 55.9333 130.323 55.2131 135.181 55.0405C135.939 55.0136 136.701 55 137.467 55C172.531 55 201 84.7423 201 120C201 155.258 172.531 185 137.467 185C131.592 185 125.902 184.199 120.501 182.7ZM41.389 120C41.389 85.5891 69.1882 56.4452 103.533 56.4452C137.879 56.4452 165.678 85.5891 165.678 120H165.674C165.674 135.598 153.069 149.492 137.467 149.492C131.626 149.492 126.206 147.714 121.71 144.671C128.654 139.235 133.13 129.544 133.13 120C133.13 103.555 119.856 89.063 103.533 89.063C87.2113 89.063 73.9366 103.555 73.9366 120H73.9331C73.9331 148.37 92.3658 173.594 117.836 181.896C113.245 182.981 108.456 183.555 103.533 183.555C69.1882 183.555 41.389 154.411 41.389 120ZM120.579 181.226H120.548C120.526 181.232 120.522 181.197 120.499 181.203C94.4128 173.793 75.322 148.516 75.322 120H75.3255C75.3255 104.402 87.9309 90.5082 103.533 90.5082C109.374 90.5082 114.794 92.286 119.29 95.3287C112.346 100.765 107.87 110.455 107.87 120C107.87 136.445 121.144 150.937 137.467 150.937C153.789 150.937 167.063 136.445 167.063 120H167.067C167.067 91.6297 148.634 66.4058 123.164 58.1043C127.057 57.1845 131.091 56.6318 135.228 56.4849C135.971 56.4585 136.717 56.4452 137.467 56.4452C171.812 56.4452 199.611 85.5891 199.611 120C199.611 154.411 171.812 183.555 137.467 183.555C131.612 183.555 125.948 182.743 120.579 181.226ZM120.5 96.1949C113.666 101.363 109.259 110.771 109.259 120C109.259 129.226 113.668 138.638 120.5 143.805C127.334 138.637 131.741 129.229 131.741 120C131.741 110.774 127.332 101.362 120.5 96.1949Z" fill="white" stroke="white" stroke-width="3"/>
</svg>
